<?xml version="1.0" standalone="no"?>
<!DOCTYPE svg PUBLIC "-//W3C//DTD SVG 20010904//EN"
 "http://www.w3.org/TR/2001/REC-SVG-20010904/DTD/svg10.dtd">
<svg version="1.0" xmlns="http://www.w3.org/2000/svg"
 width="260.000000pt" height="260.000000pt" viewBox="0 0 260.000000 260.000000"
 preserveAspectRatio="xMidYMid meet">
<metadata>
Created by potrace 1.14, written by Peter Selinger 2001-2017
</metadata>
<g transform="translate(0.000000,260.000000) scale(0.100000,-0.100000)"
fill="#000000" stroke="none">
<path d="M1909 1846 c-2 -2 -28 -6 -57 -9 -59 -6 -122 -35 -164 -75 -46 -43
-69 -122 -70 -232 0 -112 11 -161 50 -218 37 -55 77 -84 202 -144 162 -77 180
-100 180 -233 0 -134 -32 -182 -124 -189 -55 -4 -99 14 -122 50 -21 31 -23 42
-25 102 l-2 42 -82 0 -82 0 4 -67 c8 -146 65 -232 177 -267 80 -26 213 -19
276 14 56 28 97 71 106 107 3 15 10 45 15 65 9 35 13 227 5 258 -2 8 -7 34
-11 57 -12 68 -62 112 -205 182 -190 93 -203 108 -201 232 2 112 33 155 118
164 50 4 105 -19 126 -54 9 -16 18 -53 20 -83 l2 -53 69 -3 c44 -2 72 1 76 8
8 13 6 59 -5 146 -12 99 -88 173 -195 189 -25 3 -52 8 -61 11 -8 2 -17 2 -20
0z"/>
<path d="M610 1768 c-2 -822 -5 -943 -24 -971 -17 -25 -33 -34 -82 -41 -25 -4
-83 20 -111 46 l-22 21 -61 -49 c-33 -27 -60 -52 -60 -56 0 -3 21 -25 47 -47
120 -106 328 -95 418 23 53 70 54 85 55 636 l0 510 -80 0 -80 0 0 -72z"/>
<path d="M842 1786 l-1 -42 224 1 c124 0 221 -2 217 -6 -4 -4 -43 -19 -87 -35
-44 -15 -84 -31 -90 -36 -5 -4 -17 -8 -27 -8 -10 0 -18 -4 -18 -9 0 -5 -6 -8
-12 -8 -23 1 -78 -15 -78 -23 0 -6 -36 -18 -72 -24 -3 -1 -10 -4 -14 -8 -4 -5
-15 -8 -24 -8 -13 0 -16 -8 -15 -37 1 -21 3 -40 4 -43 0 -4 153 -5 339 -5
l337 1 3 42 3 42 -93 1 c-51 1 -97 0 -103 -1 -5 -1 -17 -2 -25 -2 -8 1 -68 2
-134 2 -65 1 -116 3 -114 6 4 3 92 35 133 48 6 2 17 6 25 9 19 8 269 97 293
104 12 4 17 16 17 44 l0 39 -344 0 -343 -1 -1 -43z"/>
<path d="M849 1401 c-1 -3 -2 -70 -3 -148 l-1 -143 43 0 c43 0 44 1 42 33 -1
17 -1 37 0 42 1 6 2 37 3 69 l2 60 103 1 c56 0 102 -2 103 -5 5 -28 3 -139 -2
-151 -5 -9 -3 -16 4 -17 7 0 22 -3 35 -6 46 -10 52 0 52 93 l0 87 108 -1 107
0 2 -85 c1 -47 2 -93 2 -102 1 -14 10 -18 44 -18 l42 0 -2 136 c-1 74 -3 141
-6 147 -5 13 -434 16 -455 3 -7 -4 -12 -4 -12 1 0 4 -34 8 -75 8 -41 0 -75 -4
-75 -8 0 -5 -6 -5 -12 -1 -16 10 -48 13 -49 5z"/>
</g>
</svg>
